<svg xmlns="http://www.w3.org/2000/svg" xmlns:xlink="http://www.w3.org/1999/xlink" contentStyleType="text/css" height="936px" preserveAspectRatio="none" style="width:518px;height:936px;background:#FFFFFF;" version="1.1" viewBox="0 0 518 936" width="518px" zoomAndPan="magnify"><defs/><g><!--cluster Smart Wildlife Conservation & Anti-Poaching System--><g id="cluster_Smart Wildlife Conservation &amp; Anti-Poaching System"><rect fill="none" height="523" rx="2.5" ry="2.5" style="stroke:#181818;stroke-width:1;" width="318" x="194" y="156"/><text fill="#000000" font-family="Arial" font-size="12" font-weight="bold" lengthAdjust="spacing" textLength="302.7129" x="201.6436" y="169.2559">Smart Wildlife Conservation &amp; Anti-Poaching System</text></g><!--entity Ranger--><g id="elem_Ranger"><ellipse cx="44.5" cy="245" fill="#F1F1F1" rx="16" ry="16" style="stroke:#181818;stroke-width:0.5;"/><path d="M44.5,265 C48.5,265 51.5,265 55.5,261 C63.5,261 71.5,269 71.5,277 L71.5,281 C71.5,285 67.5,289 63.5,289 L25.5,289 C21.5,289 17.5,285 17.5,281 L17.5,277 C17.5,269 25.5,261 33.5,261 C37.5,265 40.5,265 44.5,265 " fill="#F1F1F1" style="stroke:#181818;stroke-width:0.5;"/><text fill="#000000" font-family="Arial" font-size="12" lengthAdjust="spacing" textLength="39.3574" x="24.8213" y="300.7559">Ranger</text></g><!--entity Manager--><g id="elem_Manager"><ellipse cx="44.6846" cy="458" fill="#F1F1F1" rx="16" ry="16" style="stroke:#181818;stroke-width:0.5;"/><path d="M44.6846,478 C48.6846,478 51.6846,478 55.6846,474 C63.6846,474 71.6846,482 71.6846,490 L71.6846,494 C71.6846,498 67.6846,502 63.6846,502 L25.6846,502 C21.6846,502 17.6846,498 17.6846,494 L17.6846,490 C17.6846,482 25.6846,474 33.6846,474 C37.6846,478 40.6846,478 44.6846,478 " fill="#F1F1F1" style="stroke:#181818;stroke-width:0.5;"/><text fill="#000000" font-family="Arial" font-size="12" lengthAdjust="spacing" textLength="75.3691" x="7" y="513.7559">Park Manager</text></g><!--entity Liaison--><g id="elem_Liaison"><ellipse cx="44.3496" cy="365" fill="#F1F1F1" rx="16" ry="16" style="stroke:#181818;stroke-width:0.5;"/><path d="M44.3496,385 C48.3496,385 51.3496,385 55.3496,381 C63.3496,381 71.3496,389 71.3496,397 L71.3496,401 C71.3496,405 67.3496,409 63.3496,409 L25.3496,409 C21.3496,409 17.3496,405 17.3496,401 L17.3496,397 C17.3496,389 25.3496,381 33.3496,381 C37.3496,385 40.3496,385 44.3496,385 " fill="#F1F1F1" style="stroke:#181818;stroke-width:0.5;"/><text fill="#000000" font-family="Arial" font-size="12" lengthAdjust="spacing" textLength="76.6992" x="6" y="420.7559">Liaison Officer</text></g><!--entity Researcher--><g id="elem_Researcher"><ellipse cx="44.5137" cy="658" fill="#F1F1F1" rx="16" ry="16" style="stroke:#181818;stroke-width:0.5;"/><path d="M44.5137,678 C48.5137,678 51.5137,678 55.5137,674 C63.5137,674 71.5137,682 71.5137,690 L71.5137,694 C71.5137,698 67.5137,702 63.5137,702 L25.5137,702 C21.5137,702 17.5137,698 17.5137,694 L17.5137,690 C17.5137,682 25.5137,674 33.5137,674 C37.5137,678 40.5137,678 44.5137,678 " fill="#F1F1F1" style="stroke:#181818;stroke-width:0.5;"/><text fill="#000000" font-family="Arial" font-size="12" lengthAdjust="spacing" textLength="62.0273" x="13.5" y="713.7559">Researcher</text></g><!--entity Community--><g id="elem_Community"><ellipse cx="44.3398" cy="858" fill="#F1F1F1" rx="16" ry="16" style="stroke:#181818;stroke-width:0.5;"/><path d="M44.3398,878 C48.3398,878 51.3398,878 55.3398,874 C63.3398,874 71.3398,882 71.3398,890 L71.3398,894 C71.3398,898 67.3398,902 63.3398,902 L25.3398,902 C21.3398,902 17.3398,898 17.3398,894 L17.3398,890 C17.3398,882 25.3398,874 33.3398,874 C37.3398,878 40.3398,878 44.3398,878 " fill="#F1F1F1" style="stroke:#181818;stroke-width:0.5;"/><text fill="#000000" font-family="Arial" font-size="12" lengthAdjust="spacing" textLength="60.6797" x="14" y="913.7559">Community</text><text fill="#000000" font-family="Arial" font-size="12" lengthAdjust="spacing" textLength="44.0098" x="14" y="927.5547">Member</text></g><!--entity Sensor--><g id="elem_Sensor"><ellipse cx="44.5" cy="551" fill="#F1F1F1" rx="16" ry="16" style="stroke:#181818;stroke-width:0.5;"/><path d="M44.5,571 C48.5,571 51.5,571 55.5,567 C63.5,567 71.5,575 71.5,583 L71.5,587 C71.5,591 67.5,595 63.5,595 L25.5,595 C21.5,595 17.5,591 17.5,587 L17.5,583 C17.5,575 25.5,567 33.5,567 C37.5,571 40.5,571 44.5,571 " fill="#F1F1F1" style="stroke:#181818;stroke-width:0.5;"/><text fill="#000000" font-family="Arial" font-size="12" lengthAdjust="spacing" textLength="38.0215" x="20.8223" y="606.7559">Sensor</text><text fill="#000000" font-family="Arial" font-size="12" lengthAdjust="spacing" textLength="47.3555" x="20.8223" y="620.5547">Gateway</text></g><!--entity Camera--><g id="elem_Camera"><ellipse cx="44.5" cy="751" fill="#F1F1F1" rx="16" ry="16" style="stroke:#181818;stroke-width:0.5;"/><path d="M44.5,771 C48.5,771 51.5,771 55.5,767 C63.5,767 71.5,775 71.5,783 L71.5,787 C71.5,791 67.5,795 63.5,795 L25.5,795 C21.5,795 17.5,791 17.5,787 L17.5,783 C17.5,775 25.5,767 33.5,767 C37.5,771 40.5,771 44.5,771 " fill="#F1F1F1" style="stroke:#181818;stroke-width:0.5;"/><text fill="#000000" font-family="Arial" font-size="12" lengthAdjust="spacing" textLength="42.6797" x="20.8223" y="806.7559">Camera</text><text fill="#000000" font-family="Arial" font-size="12" lengthAdjust="spacing" textLength="47.3555" x="20.8223" y="820.5547">Gateway</text></g><g id="elem_GMN35"><path d="M236.5,12 L236.5,35.7988 A0,0 0 0 0 236.5,35.7988 L469.5918,35.7988 A0,0 0 0 0 469.5918,35.7988 L469.5918,22 L459.5918,12 L282.6837,12 L274.2712,205.1251 L274.6837,12 L236.5,12 A0,0 0 0 0 236.5,12 " fill="#FAFAFA" style="stroke:#181818;stroke-width:0.5;"/><path d="M459.5918,12 L459.5918,22 L469.5918,22 L459.5918,12 " fill="#FAFAFA" style="stroke:#181818;stroke-width:0.5;"/><text fill="#000000" font-family="Arial" font-size="12" lengthAdjust="spacing" textLength="212.0918" x="242.5" y="28.2559">R-02a: removes the retry dead-end (F4)</text></g><g id="elem_GMN38"><path d="M256,110 L256,113.403 L246.9826,403.3741 L256,121.403 L256,147.5977 A0,0 0 0 0 256,147.5977 L450.4199,147.5977 A0,0 0 0 0 450.4199,147.5977 L450.4199,120 L440.4199,110 L256,110 A0,0 0 0 0 256,110 " fill="#FAFAFA" style="stroke:#181818;stroke-width:0.5;"/><path d="M440.4199,110 L440.4199,120 L450.4199,120 L440.4199,110 " fill="#FAFAFA" style="stroke:#181818;stroke-width:0.5;"/><text fill="#000000" font-family="Arial" font-size="12" lengthAdjust="spacing" textLength="173.4199" x="262" y="126.2559">R-02b: time-boxed escalation for</text><text fill="#000000" font-family="Arial" font-size="12" lengthAdjust="spacing" textLength="119.3906" x="262" y="140.0547">unassigned alerts (F4)</text></g><g id="elem_GMN41"><path d="M248,54 L248,60.4627 L248.8838,273.0213 L248,68.4627 L248,91.5977 A0,0 0 0 0 248,91.5977 L457.7539,91.5977 A0,0 0 0 0 457.7539,91.5977 L457.7539,64 L447.7539,54 L248,54 A0,0 0 0 0 248,54 " fill="#FAFAFA" style="stroke:#181818;stroke-width:0.5;"/><path d="M447.7539,54 L447.7539,64 L457.7539,64 L447.7539,54 " fill="#FAFAFA" style="stroke:#181818;stroke-width:0.5;"/><text fill="#000000" font-family="Arial" font-size="12" lengthAdjust="spacing" textLength="188.7539" x="254" y="70.2559">R-02c: liaison records the outcome;</text><text fill="#000000" font-family="Arial" font-size="12" lengthAdjust="spacing" textLength="186.7324" x="254" y="84.0547">completes the conflict lifecycle (F4)</text></g><g id="elem_UC01"><ellipse cx="353.1756" cy="332.0351" fill="#F1F1F1" rx="105.6756" ry="23.5351" style="stroke:#181818;stroke-width:0.5;"/><text fill="#000000" font-family="Arial" font-size="12" lengthAdjust="spacing" textLength="30.6797" x="337.8358" y="327.4922">UC01</text><text fill="#000000" font-family="Arial" font-size="12" lengthAdjust="spacing" textLength="140.0801" x="283.1356" y="341.291">Manage Patrol Operations</text></g><g id="elem_UC01b"><ellipse cx="352.9477" cy="203.0145" fill="#F1F1F1" rx="78.4477" ry="22.5145" style="stroke:#181818;stroke-width:0.5;"/><text fill="#000000" font-family="Arial" font-size="12" lengthAdjust="spacing" textLength="37.3535" x="334.271" y="198.4715">UC01b</text><text fill="#000000" font-family="Arial" font-size="12" lengthAdjust="spacing" textLength="94.6992" x="305.5981" y="212.2703">Retry Failed Sync</text></g><g id="elem_UC02"><ellipse cx="353.1986" cy="644.1397" fill="#F1F1F1" rx="123.6986" ry="27.1397" style="stroke:#181818;stroke-width:0.5;"/><text fill="#000000" font-family="Arial" font-size="12" lengthAdjust="spacing" textLength="30.6797" x="337.8588" y="639.5968">UC02</text><text fill="#000000" font-family="Arial" font-size="12" lengthAdjust="spacing" textLength="186.0703" x="260.1635" y="653.3956">Record &amp; Review Wildlife Incidents</text></g><g id="elem_UC03"><ellipse cx="353.0298" cy="494.006" fill="#F1F1F1" rx="113.0298" ry="25.006" style="stroke:#181818;stroke-width:0.5;"/><text fill="#000000" font-family="Arial" font-size="12" lengthAdjust="spacing" textLength="30.6797" x="337.69" y="489.463">UC03</text><text fill="#000000" font-family="Arial" font-size="12" lengthAdjust="spacing" textLength="159.4219" x="273.3189" y="503.2618">Coordinate Conflict Response</text></g><g id="elem_UC03b"><ellipse cx="352.921" cy="397.0842" fill="#F1F1F1" rx="105.921" ry="23.5842" style="stroke:#181818;stroke-width:0.5;"/><text fill="#000000" font-family="Arial" font-size="12" lengthAdjust="spacing" textLength="37.3535" x="334.2443" y="392.5412">UC03b</text><text fill="#000000" font-family="Arial" font-size="12" lengthAdjust="spacing" textLength="140.7422" x="282.5499" y="406.3401">Escalate Unassigned Alert</text></g><g id="elem_UC03c"><ellipse cx="352.9479" cy="267.1896" fill="#F1F1F1" rx="103.9479" ry="23.1896" style="stroke:#181818;stroke-width:0.5;"/><text fill="#000000" font-family="Arial" font-size="12" lengthAdjust="spacing" textLength="36.6797" x="334.608" y="262.6466">UC03c</text><text fill="#000000" font-family="Arial" font-size="12" lengthAdjust="spacing" textLength="135.3809" x="285.2574" y="276.4454">Close Alert with Outcome</text></g><g id="elem_UC04"><ellipse cx="352.8949" cy="568.079" fill="#F1F1F1" rx="140.8949" ry="30.579" style="stroke:#181818;stroke-width:0.5;"/><text fill="#000000" font-family="Arial" font-size="12" lengthAdjust="spacing" textLength="30.6797" x="337.5551" y="563.536">UC04</text><text fill="#000000" font-family="Arial" font-size="12" lengthAdjust="spacing" textLength="226.7871" x="239.5014" y="577.3348">Analyze &amp; Generate Conservation Reports</text></g><polygon fill="#181818" points="247.3743,344.699,238.2521,340.9861,242.3768,344.8574,238.5055,348.9821,247.3743,344.699" style="stroke:#181818;stroke-width:1;"/><path d="M72.1658,301.0098 C80.4284,309.3787 90.2268,317.2554 101,322 C146.2998,341.9505 194.7729,346.3663 241.3773,344.8891 " fill="none" style="stroke:#181818;stroke-width:1;"/><polygon fill="#181818" points="274.337,205.9182,265.0712,202.5797,269.3501,206.2799,265.6499,210.5588,274.337,205.9182" style="stroke:#181818;stroke-width:1;"/><path d="M72.2792,248.9742 C81.1201,244.0588 91.2049,239.1716 101,236 C157.3445,217.7562 217.9316,210.0092 268.3527,206.3522 " fill="none" style="stroke:#181818;stroke-width:1;"/><polygon fill="#181818" points="229.4147,628.734,222.5618,621.6604,224.7771,626.8654,219.572,629.0807,229.4147,628.734" style="stroke:#181818;stroke-width:1;"/><path d="M65.3316,303.7549 C71.2054,315.2986 77.5261,328.0914 83,340 C136.8444,457.141 95.4833,524.8393 194,608 C204.4266,616.8014 211.0084,621.3177 223.8495,626.4917 " fill="none" style="stroke:#181818;stroke-width:1;"/><polygon fill="#181818" points="248.8424,252.3531,240.2559,247.5289,243.8643,251.8855,239.5078,255.4939,248.8424,252.3531" style="stroke:#181818;stroke-width:1;"/><path d="M72.0639,257.8814 C81.1495,255.4855 91.4343,253.1879 101,252 C149.4116,245.9882 197.4127,247.5221 242.8687,251.792 " fill="none" style="stroke:#181818;stroke-width:1;"/><polygon fill="#181818" points="247.4777,341.8779,237.7523,340.3234,242.6454,343.162,239.8068,348.0551,247.4777,341.8779" style="stroke:#181818;stroke-width:1;"/><path d="M82.0062,457.6001 C112.1068,438.8223 154.7783,409.4945 186,377 C190.441,372.3779 188.6893,368.5893 194,365 C209.9037,354.2512 222.8101,348.4329 241.6789,343.4188 " fill="none" style="stroke:#181818;stroke-width:1;"/><polygon fill="#181818" points="239.9001,503.3697,230.7635,499.6925,234.9033,503.5476,231.0481,507.6874,239.9001,503.3697" style="stroke:#181818;stroke-width:1;"/><path d="M82.1236,492.6543 C88.3429,494.4577 94.7968,496.0192 101,497 C146.0894,504.129 190.3077,505.1351 233.9039,503.5832 " fill="none" style="stroke:#181818;stroke-width:1;"/><polygon fill="#181818" points="266.1277,420.5334,256.2926,420.014,261.458,422.3203,259.1517,427.4857,266.1277,420.5334" style="stroke:#181818;stroke-width:1;"/><path d="M82.0312,485.7684 C111.9496,489.3881 154.3534,489.9639 186,472 C191.5744,468.8357 189.0203,464.036 194,460 C214.9917,442.9864 235.5585,432.2309 260.524,422.6777 " fill="none" style="stroke:#181818;stroke-width:1;"/><polygon fill="#181818" points="211.8819,539.9407,204.0896,533.9174,207.025,538.753,202.1893,541.6884,211.8819,539.9407" style="stroke:#181818;stroke-width:1;"/><path d="M82.295,499.0286 C88.4375,501.9446 94.8223,504.7252 101,507 C136.244,519.978 169.4632,529.5679 206.0536,538.5155 " fill="none" style="stroke:#181818;stroke-width:1;"/><polygon fill="#181818" points="280.7917,468.9087,273.6327,462.145,276.0759,467.247,270.974,469.6903,280.7917,468.9087" style="stroke:#181818;stroke-width:1;"/><path d="M83.0829,399.2429 C132.1575,416.5351 213.4061,445.1643 275.1328,466.9147 " fill="none" style="stroke:#181818;stroke-width:1;"/><polygon fill="#181818" points="246.7507,401.5685,237.6835,397.7235,241.7515,401.6543,237.8207,405.7223,246.7507,401.5685" style="stroke:#181818;stroke-width:1;"/><path d="M83.2684,394.5108 C89.1751,395.5445 95.2322,396.4339 101,397 C148.7048,401.682 195.7567,402.4433 240.7516,401.6714 " fill="none" style="stroke:#181818;stroke-width:1;"/><polygon fill="#181818" points="248.9207,272.3784,239.2022,270.7809,244.0828,273.6411,241.2226,278.5216,248.9207,272.3784" style="stroke:#181818;stroke-width:1;"/><path d="M83.1095,378.7388 C114.7267,370.7531 158.9707,354.8741 186,325 C193.827,316.3492 185.334,307.8101 194,300 C209.2999,286.2112 223.033,279.1352 243.1152,273.8936 " fill="none" style="stroke:#181818;stroke-width:1;"/><polygon fill="#181818" points="222.4533,598.5609,212.6767,597.3701,217.6723,600.0243,215.0181,605.0198,222.4533,598.5609" style="stroke:#181818;stroke-width:1;"/><path d="M75.7377,662.3526 C105.2198,646.6521 151.6743,623.305 194,608 C203.1804,604.6804 207.0186,603.2851 216.716,600.3169 " fill="none" style="stroke:#181818;stroke-width:1;"/><polygon fill="#181818" points="317.6703,671.1054,308.1279,673.5431,313.746,674.2038,313.0854,679.8219,317.6703,671.1054" style="stroke:#181818;stroke-width:1;"/><path d="M75.167,862.5761 C132.2559,817.5011 252.3857,722.6514 312.9612,674.8235 " fill="none" style="stroke:#181818;stroke-width:1;"/><polygon fill="#181818" points="239.8516,517.2875,230.1719,515.47,234.9862,518.4401,232.0161,523.2545,239.8516,517.2875" style="stroke:#181818;stroke-width:1;"/><path d="M72.0601,569.0991 C101.5671,558.3253 150.7572,541.0324 194,529 C208.7516,524.8953 218.5448,522.3352 234.0132,518.6706 " fill="none" style="stroke:#181818;stroke-width:1;"/><polygon fill="#181818" points="290.4877,671.0935,280.6389,671.0607,285.9119,673.109,283.8636,678.382,290.4877,671.0935" style="stroke:#181818;stroke-width:1;"/><path d="M72.1637,767.2558 C120.5174,745.9581 218.3345,702.8739 284.9967,673.5121 " fill="none" style="stroke:#181818;stroke-width:1;"/><polygon fill="#181818" points="247.3781,336.0533,238.8486,331.1291,242.4058,335.5275,238.0074,339.0848,247.3781,336.0533" style="stroke:#181818;stroke-width:1;"/><path d="M274.3526,206.6843 C196.318,213.3424 93.8661,232.0329 135,284.5 C161.4084,318.1845 199.6686,331.0088 241.4113,335.4224 " fill="none" style="stroke:#181818;stroke-width:1;stroke-dasharray:7.0,7.0;"/><text fill="#000000" font-family="Arial" font-size="12" lengthAdjust="spacing" textLength="49.377" x="118.9961" y="266.7559">&#171;extend&#187;</text><text fill="#000000" font-family="Arial" font-size="12" lengthAdjust="spacing" textLength="81.3691" x="103" y="280.5547">when sync fails</text><polygon fill="#181818" points="353,468.7676,357,459.7676,353,463.7676,349,459.7676,353,468.7676" style="stroke:#181818;stroke-width:1;"/><path d="M353,420.7716 C353,435.3305 353,447.9482 353,462.7676 " fill="none" style="stroke:#181818;stroke-width:1;stroke-dasharray:7.0,7.0;"/><text fill="#000000" font-family="Arial" font-size="12" lengthAdjust="spacing" textLength="49.377" x="309.8447" y="442.5059">&#171;extend&#187;</text><text fill="#000000" font-family="Arial" font-size="12" lengthAdjust="spacing" textLength="124.0664" x="272.5" y="456.3047">after escalation timeout</text><polygon fill="#181818" points="259.1934,468.8934,252.3637,461.7973,254.5619,467.0096,249.3496,469.2077,259.1934,468.8934" style="stroke:#181818;stroke-width:1;"/><path d="M248.9034,250.5421 C208.1524,250.2834 164.6391,258.8323 137,289.5 C91.8857,339.5578 144.0894,384.7229 194,430 C212.5129,446.7942 230.4377,457.1972 253.6356,466.6328 " fill="none" style="stroke:#181818;stroke-width:1;stroke-dasharray:7.0,7.0;"/><text fill="#000000" font-family="Arial" font-size="12" lengthAdjust="spacing" textLength="49.377" x="119.001" y="302.7559">&#171;extend&#187;</text><text fill="#000000" font-family="Arial" font-size="12" lengthAdjust="spacing" textLength="77.3789" x="105" y="316.5547">when resolved</text><!--SRC=[hLNDZjis4BxpAQO-fBj0tQxjFRdf0iOsJXV8TXSsqbvy6L4ZYrYAD4ZAZb8Kw4Fq2Via7OgIx2WfUea1oUJmc-7CDp_wvk1mNo5eR6mTm5SKqA3u5dxwYZysjxgPmyFZy-RfjpS_mpz__Gs_g7qvrNGa3RKdaCYlNE7UOGLNxrhvR0bPxPKXxs5lKNkmHZVNR6r3tkeZULZFleFrd9y5FxTmvUXWNO3Dz8OF-3s__jgX2F-Yp06ZcndAbxspjSdlhROEJgKAT77kIypjIPaz5EpyvKbE1TOwhAq9ls95i78AzPVFj-eZmMn-SLXPOsNfBEi5Lr-QHHcisuP64-29AQf824r5W631CT-16NOaWx96Y1OCamsQFRa9e8Uqx0-UqRt08nT3Vzoj-_Dt2fMt1fwAGiaEqia6s-G9dInx-yEs1zpRgggD2itEF5ALTRX1siEsPBnrE_CM0vsmQK59DXXY5Xr-YaWo8MB471cJCjbMoDNnkzAvLWNnHSQJEs8a15x1oWGrVROeovYpRUC3LHFuGmY89TfMwEJz_SsCdMsfW6SCpcfuEl0zqOPlxusGiKgsCniAhe4rAaqv6pTo06SZz3o2fNKv-xIXewBJsUK78rLE9WnNpKVAYvsvjwoh35CH8ooqaY5oVuZHzcgBiHfx-CPBr57hlK7lrTwmeojDBWnAOqyNac_JbdSj3augbF1K1ycbDoZ9aTBjpgmCweRh-XMy9HF96-LYqxRn4EEj47yARkJfT0ghDk7idvKgaGvNp5LCChlBcU1PS1sH8fKpB-zIIaRxR2IOZ_Rij-XA_cnZ95Xy9iZ64lQzxvH1QIp8FfFmtUTkkJ0rjCRPQv4wuMmzrVq5817tK1sSFLB5nGEETEAkL8SpVw2Cr7LEFz27G2O_3ujsbCuIgorry7tY0vRm-dL2tztjpAaa0vvBcmUUqbwqiNNOnGYBHU38A9LSp7bG5V4dg5MI_w7KNk3IyC-5C9OB9xCXs0fiCVHIdFkuP5nbupSYbCJhs7mvOJwDaLsjRwz5N4GBNp2pwCraozQlQMO_S7LTU5lmxE6oFZSAnWRm_szPTfRb4dINTDSsUtBKfkRvaL7yVz0KkWXatybn3CX6yZZxzAv_0G00]--></g></svg>